<svg xmlns="http://www.w3.org/2000/svg" width="67" height="67" viewBox="0 0 67 67">
    <defs>
        <linearGradient id="a" x1="50%" x2="50%" y1="0%" y2="100%">
            <stop offset="0%" stop-color="#00AEC4"/>
            <stop offset="100%" stop-color="#007591"/>
        </linearGradient>
    </defs>
    <g fill="none" fill-rule="evenodd">
        <circle cx="33.5" cy="33.5" r="33.5" fill="url(#a)"/>
        <path fill="#FFF" d="M33.251 32.65c3.558 0 6.443-3.503 6.443-7.825S38.747 17 33.25 17c-5.495 0-6.442 3.503-6.442 7.825s2.884 7.825 6.442 7.825zM45.405 44.282c-.119-7.528-1.102-9.674-8.626-11.031 0 0-1.06 1.35-3.528 1.35s-3.528-1.35-3.528-1.35c-7.441 1.343-8.484 3.456-8.622 10.786-.01.599-.016.63-.018.561l.001.79S22.875 49 33.251 49s12.168-3.611 12.168-3.611v-.585c-.002.043-.006-.04-.014-.522z"/>
        <g fill="#000" fill-rule="nonzero">
            <path d="M21.108 44.602c-.002-.271-.004-.076 0 0zM45.443 44.804c.005-.072.002-.5 0 0z"/>
        </g>
    </g>
</svg>
