<svg xmlns="http://www.w3.org/2000/svg" width="67" height="67" viewBox="0 0 67 67">
    <defs>
        <linearGradient id="a" x1="50%" x2="50%" y1="0%" y2="100%">
            <stop offset="0%" stop-color="#929292"/>
            <stop offset="100%" stop-color="#434343"/>
        </linearGradient>
    </defs>
    <g fill="none" fill-rule="evenodd">
        <circle cx="33.5" cy="33.5" r="33.5" fill="url(#a)"/>
        <path fill="#FFF" d="M33.251 32.65c3.558 0 6.443-3.503 6.443-7.825S38.747 17 33.25 17c-5.495 0-6.442 3.503-6.442 7.825s2.884 7.825 6.442 7.825zM36.779 33.25c7.524 1.358 8.507 3.504 8.626 11.032.008.482.012.565.014.522v.584S43.627 49 33.25 49c-9.943 0-12.003-3.316-12.157-3.593l-.01-.018v-.777c.002.047.007-.022.017-.575.138-7.33 1.18-9.443 8.622-10.786 0 0 1.06 1.35 3.528 1.35 2.469 0 3.528-1.35 3.528-1.35zm-2.583 11.08H32.62c-.267 0-.422.14-.422.422v1.576c0 .267.155.422.422.422h1.576c.281 0 .422-.155.422-.422v-1.576c0-.281-.14-.422-.422-.422zm-.577-7.681c-2.898 0-3.433 1.885-3.517 2.898-.014.253.113.408.366.464l1.603.352c.282.056.423-.07.465-.352.098-.577.422-.942 1.083-.942.549 0 .774.506.69.928-.296 1.435-1.703 1.238-2.04 3.151-.057.296.112.465.393.465h1.59c.253 0 .38-.113.478-.352.507-1.168 2.139-1.365 2.139-3.7.014-.422-.099-2.912-3.25-2.912z"/>
    </g>
</svg>
