<svg xmlns="http://www.w3.org/2000/svg" xmlns:xlink="http://www.w3.org/1999/xlink" viewBox="0 0 100 89.24"><defs><linearGradient id="a" x1="55.82" y1="-14.54" x2="42.05" y2="110.85" gradientTransform="matrix(1, 0, 0, -1, 0, 102)" gradientUnits="userSpaceOnUse"><stop offset="0" stop-color="#dac0ff" stop-opacity="0.74"/><stop offset="0.99" stop-color="#fefefe"/></linearGradient></defs><title>graphic-voucher</title><path d="M90.87,32.05A26.31,26.31,0,0,1,85.16,20.2a18.15,18.15,0,0,0-4.87-9.43C68.81-.71,42.74,6.75,22.05,27.43S-6.09,74.19,5.39,85.67c5.46,5.46,14.21,6.63,24.11,4.14a26.6,26.6,0,0,1,17.25,1.57A37.9,37.9,0,0,0,90.87,32.05Z" transform="translate(0 -5.38)" style="fill:url(#a)"/><path d="M62.38,14.51a11.37,11.37,0,0,1-8.16,0,2,2,0,0,0-2.07.45l-43,43A1.94,1.94,0,0,0,8.72,60a11.37,11.37,0,0,1,0,8.16,1.94,1.94,0,0,0,.45,2.06L28.08,89.14a1.93,1.93,0,0,0,2.06.45,11.39,11.39,0,0,1,8.17,0,1.93,1.93,0,0,0,2.06-.45l43-43a1.93,1.93,0,0,0,.45-2.06,11.39,11.39,0,0,1,0-8.17,1.93,1.93,0,0,0-.45-2.06L64.44,15a1.94,1.94,0,0,0-2.06-.45Z" transform="translate(0 -5.38)" style="fill:#00c;opacity:0.10000000149011612;isolation:isolate"/><path d="M62.38,10.4a11.26,11.26,0,0,1-8.16,0,2,2,0,0,0-2.07.45l-43,43a1.93,1.93,0,0,0-.45,2.06,11.39,11.39,0,0,1,0,8.17,2,2,0,0,0,.45,2.06L28.08,85a1.93,1.93,0,0,0,2.06.45,11.39,11.39,0,0,1,8.17,0A1.93,1.93,0,0,0,40.37,85l43-43A1.94,1.94,0,0,0,83.8,40a11.37,11.37,0,0,1,0-8.16,1.92,1.92,0,0,0-.45-2.06L64.44,10.85A2,2,0,0,0,62.38,10.4Z" transform="translate(0 -5.38)" style="fill:#ffefc6"/><path d="M37.38,79.16a17.11,17.11,0,0,0-6.3,0,1,1,0,0,1-.86-.27L15.32,64a1,1,0,0,1-.27-.86,17.11,17.11,0,0,0,0-6.3,1,1,0,0,1,.27-.85l39-39a1,1,0,0,1,.86-.27,17.55,17.55,0,0,0,6.3,0,1,1,0,0,1,.86.27L77.2,31.9a1,1,0,0,1,.27.86,17.55,17.55,0,0,0,0,6.3,1,1,0,0,1-.27.86l-39,39a1,1,0,0,1-.85.27Z" transform="translate(0 -5.38)" style="fill:#fff"/><path d="M54.29,17,34.81,36.49,57.72,59.4,77.2,39.92a1,1,0,0,0,.27-.86,17.55,17.55,0,0,1,0-6.3,1,1,0,0,0-.27-.86L62.31,17a1,1,0,0,0-.86-.27,17.55,17.55,0,0,1-6.3,0A1,1,0,0,0,54.29,17Z" transform="translate(0 -5.38)" style="fill:#7a1dff"/><path d="M45.07,81.32a1,1,0,0,1-1-1,1,1,0,0,1,.29-.7L82.67,41.37a1,1,0,0,0,.23-1,12.23,12.23,0,0,1,0-8.87,1,1,0,0,0-.23-1L68.45,16.24a1,1,0,1,1,1.32-1.44l.06.06L84.05,29.08a2.92,2.92,0,0,1,.67,3.1,10.35,10.35,0,0,0,0,7.47,2.92,2.92,0,0,1-.67,3.1L45.76,81A1,1,0,0,1,45.07,81.32ZM39,86.59a2.81,2.81,0,0,1-1-.19,10.35,10.35,0,0,0-7.47,0,2.9,2.9,0,0,1-3.1-.67L8.48,66.82a2.9,2.9,0,0,1-.67-3.1,10.35,10.35,0,0,0,0-7.47,2.9,2.9,0,0,1,.67-3.1l43-43a2.93,2.93,0,0,1,3.11-.67,10.32,10.32,0,0,0,7.46,0,2.94,2.94,0,0,1,3.11.67,1,1,0,0,1-1.33,1.44l-.05-.06a1,1,0,0,0-1-.22,12.33,12.33,0,0,1-8.87,0,.93.93,0,0,0-1,.23l-43,43a1,1,0,0,0-.23,1,12.33,12.33,0,0,1,0,8.87,1,1,0,0,0,.23,1L28.77,84.35a1,1,0,0,0,1,.23,12.33,12.33,0,0,1,8.87,0,1,1,0,0,0,1-.23,1,1,0,0,1,1.38,0,1,1,0,0,1,0,1.34,2.92,2.92,0,0,1-2.07.86Z" transform="translate(0 -5.38)" style="fill:#7a1dff"/><path d="M24.46,62.38h-3a1,1,0,0,1-1-1v-3a1,1,0,0,1,1-1h3a1,1,0,0,1,1,1v3A1,1,0,0,1,24.46,62.38Zm-2.06-2h1.08V59.33H22.4Zm13.42,2h-3a1,1,0,0,1-1-1h0v-3a1,1,0,0,1,1-1h3a1,1,0,0,1,1,1v3A1,1,0,0,1,35.82,62.38Zm-2.06-2h1.09V59.33H33.76Zm-5.14,7a1,1,0,0,1-1-1V53.31a1,1,0,0,1,1-1,1,1,0,0,1,1,1V66.45A1,1,0,0,1,28.62,67.43Zm3.27,4,5.88-5.87a1,1,0,1,1,1.4,1.36l0,0-5.88,5.87a1,1,0,1,1-1.42-1.34Zm2.68,2.67L48.73,60a1,1,0,0,1,1.38,1.38L36,75.5a1,1,0,0,1-1.39-1.38Z" transform="translate(0 -5.38)" style="fill:#dac0ff"/><path d="M58.43,47A11.19,11.19,0,1,0,47.24,35.78,11.19,11.19,0,0,0,58.43,47Z" transform="translate(0 -5.38)" style="fill:#fff"/><path d="M59.22,41.54a1,1,0,0,1-1-1,1,1,0,0,1,.28-.69L61.43,37A1,1,0,0,0,60,35.57l-1.8,1.8a2.95,2.95,0,0,1-4.17-4.17L57,30.3a1,1,0,0,1,1.38.07,1,1,0,0,1,0,1.31l-2.9,2.9A1,1,0,0,0,56.84,36l1.8-1.8a3,3,0,0,1,4.17,0,2.93,2.93,0,0,1,0,4.17l-2.9,2.9A1,1,0,0,1,59.22,41.54Z" transform="translate(0 -5.38)" style="fill:#7a1dff"/><path d="M62.26,40.58a1,1,0,0,1-.69-.28l-7.66-7.66a1,1,0,0,1,0-1.38,1,1,0,0,1,1.39,0h0L63,38.92a1,1,0,0,1-.69,1.66Z" transform="translate(0 -5.38)" style="fill:#7a1dff"/><path d="M34.85,43.71a1.1,1.1,0,1,0-1.09-1.09A1.09,1.09,0,0,0,34.85,43.71ZM37.19,46A1.09,1.09,0,1,0,36.09,45,1.09,1.09,0,0,0,37.19,46Zm2.33,2.34a1.09,1.09,0,1,0-1.09-1.09A1.09,1.09,0,0,0,39.52,48.38Z" transform="translate(0 -5.38)" style="fill:#5b00e4"/><path d="M30.63,23.08a1,1,0,0,1-.69-1.67l1.95-1.95a1,1,0,0,1,1.38,0,1,1,0,0,1,0,1.34l-2,1.95a.94.94,0,0,1-.69.29ZM12.1,84.64a1,1,0,0,1-1-1,1,1,0,0,1,.28-.69l2-2a1,1,0,0,1,1.38,1.38l-1.95,2a1,1,0,0,1-.69.28Z" transform="translate(0 -5.38)" style="fill:#fc4"/><path d="M89.45,35.1a1,1,0,0,1-1-1,1,1,0,0,1,.28-.69l2-2a1,1,0,0,1,1.38.07,1,1,0,0,1,0,1.31l-2,2A1,1,0,0,1,89.45,35.1Z" transform="translate(0 -5.38)" style="fill:#7a1dff"/><path d="M60.3,78.72a1,1,0,0,1-1-1,1,1,0,0,1,.28-.69l2-2A1,1,0,0,1,63,76.48l-2,2a1,1,0,0,1-.69.29Z" transform="translate(0 -5.38)" style="fill:#fb5252"/><path d="M73.81,71.08a1,1,0,0,1-1-1,1,1,0,0,1,.29-.68l1.95-2a1,1,0,0,1,1.38,0h0l2,2a1,1,0,0,1-1.36,1.4l0,0-1.27-1.27L74.5,70.8A1,1,0,0,1,73.81,71.08Z" transform="translate(0 -5.38)" style="fill:#7a1dff"/><path d="M22.62,27.91a1,1,0,0,1-.69-.29l-1.26-1.26-1.26,1.26A1,1,0,0,1,18,26.24L20,24.29a1,1,0,0,1,1.38,0h0l2,1.95a1,1,0,0,1,0,1.38.94.94,0,0,1-.69.29Z" transform="translate(0 -5.38)" style="fill:#fb5252"/></svg>