<svg xmlns="http://www.w3.org/2000/svg" width="100" height="100" fill="none" viewBox="0 0 100 100">
    <path fill="url(#a)" d="M90.87 32.053c-2.902-3.38-4.813-7.491-5.706-11.857-.758-3.702-2.362-6.914-4.875-9.427C68.809-.71 42.737 6.751 22.054 27.434S-6.09 74.19 5.39 85.67c5.456 5.456 14.21 6.632 24.115 4.143 5.753-1.446 11.823-.838 17.244 1.568a37.741 37.741 0 0 0 14.79 3.236c20.64.3 37.841-16.124 38.445-36.757a37.758 37.758 0 0 0-9.112-25.806z"/>
    <path fill="#00C" d="M62.383 14.51a11.37 11.37 0 0 1-8.168 0 1.938 1.938 0 0 0-2.061.449L9.17 57.943c-.54.54-.725 1.349-.45 2.062a11.37 11.37 0 0 1 0 8.167 1.938 1.938 0 0 0 .45 2.062L28.08 89.145c.54.54 1.35.725 2.062.45a11.37 11.37 0 0 1 8.167 0c.713.275 1.522.09 2.062-.45l42.984-42.984c.54-.54.725-1.349.45-2.061a11.37 11.37 0 0 1 0-8.168 1.938 1.938 0 0 0-.45-2.061L64.444 14.959a1.937 1.937 0 0 0-2.061-.45z" opacity=".1"/>
    <path fill="#FFEFC6" d="M62.383 10.405a11.37 11.37 0 0 1-8.168 0 1.938 1.938 0 0 0-2.061.45L9.17 53.839c-.54.54-.725 1.349-.45 2.062a11.37 11.37 0 0 1 0 8.167 1.938 1.938 0 0 0 .45 2.061L28.08 85.041c.54.54 1.35.725 2.062.45a11.37 11.37 0 0 1 8.167 0c.713.275 1.522.09 2.062-.45l42.984-42.984c.54-.54.725-1.349.45-2.062a11.37 11.37 0 0 1 0-8.167 1.938 1.938 0 0 0-.45-2.061L64.444 10.855a1.938 1.938 0 0 0-2.061-.45z"/>
    <path fill="#fff" d="M37.376 79.159a17.257 17.257 0 0 0-6.298 0 .968.968 0 0 1-.859-.271L15.323 63.992a.968.968 0 0 1-.271-.859c.386-2.08.386-4.218 0-6.298a.968.968 0 0 1 .271-.858l38.968-38.969a.968.968 0 0 1 .859-.271c2.08.386 4.218.386 6.298 0a.968.968 0 0 1 .858.271l14.897 14.896c.224.225.329.546.27.859a17.257 17.257 0 0 0 0 6.298.968.968 0 0 1-.27.858L38.233 78.888a.967.967 0 0 1-.858.27z"/>
    <path fill="#7A1DFF" d="M54.291 17.008L34.807 36.492l22.911 22.912 19.485-19.485a.967.967 0 0 0 .27-.858 17.257 17.257 0 0 1 0-6.298.967.967 0 0 0-.27-.858L62.307 17.008a.968.968 0 0 0-.859-.271c-2.08.386-4.218.386-6.298 0a.968.968 0 0 0-.859.271z"/>
    <path fill="#7A1DFF" d="M45.068 81.322a.976.976 0 0 1-.69-1.667l38.287-38.288a.959.959 0 0 0 .23-1.02 12.3 12.3 0 0 1 0-8.87.959.959 0 0 0-.23-1.02L68.45 16.242a.977.977 0 1 1 1.381-1.38l14.216 14.215a2.913 2.913 0 0 1 .67 3.104 10.352 10.352 0 0 0 0 7.465 2.914 2.914 0 0 1-.67 3.103L45.758 81.036a.974.974 0 0 1-.69.286zM38.99 86.594c-.347 0-.696-.063-1.031-.192a10.349 10.349 0 0 0-7.465 0 2.914 2.914 0 0 1-3.103-.67L8.479 66.82a2.913 2.913 0 0 1-.67-3.103 10.352 10.352 0 0 0 0-7.465 2.914 2.914 0 0 1 .67-3.104l42.984-42.984a2.913 2.913 0 0 1 3.104-.67 10.35 10.35 0 0 0 7.464 0 2.914 2.914 0 0 1 3.104.67.977.977 0 1 1-1.38 1.381.959.959 0 0 0-1.02-.229 12.3 12.3 0 0 1-8.87 0 .96.96 0 0 0-1.02.23L9.86 54.528a.959.959 0 0 0-.229 1.02 12.301 12.301 0 0 1 0 8.87.959.959 0 0 0 .23 1.02l18.911 18.912a.958.958 0 0 0 1.02.229 12.301 12.301 0 0 1 8.87 0 .959.959 0 0 0 1.02-.23.977.977 0 0 1 1.38 1.382 2.933 2.933 0 0 1-2.071.862z"/>
    <path fill="#DAC0FF" d="M24.46 62.375h-3.04a.977.977 0 0 1-.976-.977v-3.04c0-.539.437-.976.976-.976h3.04c.54 0 .977.437.977.976v3.04c0 .54-.437.977-.977.977zm-2.063-1.953h1.087v-1.087h-1.087v1.087zM35.822 62.375h-3.04a.977.977 0 0 1-.977-.977v-3.04c0-.539.438-.976.977-.976h3.04c.54 0 .977.437.977.976v3.04c0 .54-.438.977-.977.977zm-2.064-1.953h1.087v-1.087h-1.087v1.087zM28.621 67.426a.977.977 0 0 1-.976-.976V53.307a.977.977 0 0 1 1.953 0V66.45c0 .539-.437.976-.977.976zM31.894 71.45l5.873-5.873a.977.977 0 1 1 1.381 1.382l-5.873 5.872a.977.977 0 1 1-1.381-1.381zM34.566 74.121l14.163-14.164a.977.977 0 1 1 1.382 1.382L35.947 75.503a.977.977 0 1 1-1.382-1.382z"/>
    <path fill="#fff" d="M58.432 46.971c6.181 0 11.192-5.01 11.192-11.192 0-6.181-5.01-11.192-11.192-11.192-6.181 0-11.193 5.01-11.193 11.192 0 6.181 5.012 11.192 11.193 11.192z"/>
    <path fill="#7A1DFF" d="M59.223 41.541a.977.977 0 0 1-.69-1.667l2.897-2.897a.988.988 0 0 0 .292-.704.996.996 0 0 0-1.699-.704l-1.801 1.801a2.952 2.952 0 0 1-4.17 0 2.952 2.952 0 0 1 0-4.17l2.898-2.897a.977.977 0 0 1 1.38 1.38l-2.897 2.898a.996.996 0 0 0 1.408 1.408l1.8-1.8a2.952 2.952 0 0 1 4.17 0 2.93 2.93 0 0 1 .864 2.084c0 .787-.307 1.528-.864 2.085l-2.898 2.897a.973.973 0 0 1-.69.286z"/>
    <path fill="#7A1DFF" d="M62.259 40.583c-.25 0-.5-.096-.69-.286l-7.655-7.654a.976.976 0 1 1 1.381-1.381l7.654 7.654a.976.976 0 0 1-.69 1.667z"/>
    <path fill="#5B00E4" d="M34.85 43.708a1.092 1.092 0 1 0 0-2.185 1.092 1.092 0 0 0 0 2.185zM37.186 46.045a1.092 1.092 0 1 0 0-2.185 1.092 1.092 0 0 0 0 2.185zM39.523 48.382a1.092 1.092 0 1 0 0-2.185 1.092 1.092 0 0 0 0 2.185z"/>
    <path fill="#FC4" d="M30.63 23.078a.976.976 0 0 1-.69-1.667l1.954-1.955a.977.977 0 0 1 1.381 1.381l-1.954 1.955a.974.974 0 0 1-.69.286zM12.105 84.64a.977.977 0 0 1-.69-1.667l1.953-1.955A.977.977 0 0 1 14.75 82.4l-1.954 1.955a.974.974 0 0 1-.69.285z"/>
    <path fill="#7A1DFF" d="M89.452 35.104a.976.976 0 0 1-.69-1.667l1.954-1.954a.977.977 0 0 1 1.38 1.38l-1.954 1.955a.973.973 0 0 1-.69.286z"/>
    <path fill="#FB5252" d="M60.304 78.72a.977.977 0 0 1-.69-1.667l1.954-1.954a.977.977 0 0 1 1.381 1.381l-1.954 1.954a.973.973 0 0 1-.69.286z"/>
    <path fill="#7A1DFF" d="M73.81 71.083a.977.977 0 0 1-.69-1.667l1.953-1.954a.976.976 0 0 1 1.381 0l1.955 1.954a.977.977 0 1 1-1.382 1.381l-1.263-1.263-1.264 1.263a.974.974 0 0 1-.69.286z"/>
    <path fill="#FB5252" d="M22.625 27.91c-.25 0-.5-.096-.69-.287L20.67 26.36l-1.263 1.263a.977.977 0 0 1-1.381-1.38l1.954-1.955a.976.976 0 0 1 1.381 0l1.954 1.954a.977.977 0 0 1-.69 1.667z"/>
    <defs>
        <linearGradient id="a" x1="55.818" x2="42.049" y1="116.539" y2="-8.846" gradientUnits="userSpaceOnUse">
            <stop offset=".002" stop-color="#DAC0FF" stop-opacity=".74"/>
            <stop offset=".992" stop-color="#FEFEFE"/>
        </linearGradient>
    </defs>
</svg>
