<svg xmlns="http://www.w3.org/2000/svg" width="100" height="90" fill="none" viewBox="0 0 100 90">
<!--    <path fill="url(#prefix__paint0_linear)" d="M90.87 26.673c-2.902-3.381-4.813-7.491-5.706-11.857-.758-3.702-2.362-6.914-4.875-9.427-11.48-11.48-37.552-4.018-58.235 16.665S-6.09 68.81 5.39 80.29c5.456 5.456 14.21 6.631 24.115 4.143 5.753-1.446 11.823-.838 17.244 1.568a37.741 37.741 0 0014.79 3.236c20.64.3 37.842-16.124 38.445-36.757a37.758 37.758 0 00-9.112-25.806z"/>-->
<!--    <path fill="url(#prefix__paint1_linear)" d="M33 14h35v60H33V14z"/>-->
    <path fill="#7A1DFF" d="M81.667 46H58.334C57.044 46 56 44.882 56 43.5c0-1.381 1.045-2.5 2.334-2.5h23.333C82.955 41 84 42.12 84 43.5c0 1.382-1.045 2.5-2.333 2.5z"/>
    <path fill="#7A1DFF" d="M75.2 53a2.113 2.113 0 01-1.556-.696c-.859-.928-.859-2.43 0-3.358L78.69 43.5l-5.044-5.446c-.86-.928-.86-2.43 0-3.358.86-.928 2.252-.928 3.11 0l6.6 7.125c.86.928.86 2.43 0 3.358l-6.6 7.125c-.43.464-.992.696-1.555.696z"/>
    <path fill="#DAC0FF" d="M51 80l-31-6.828V14l31 6.828V80z"/>
    <path fill="#7A1DFF" d="M51.635 83c-.161 0-.324-.016-.484-.052L18.825 75.98A2.32 2.32 0 0117 73.71V13.323c0-.7.314-1.365.857-1.805a2.295 2.295 0 011.936-.465l32.325 6.967a2.319 2.319 0 011.825 2.271v60.386c0 .701-.314 1.366-.856 1.805a2.3 2.3 0 01-1.452.518zM21.618 71.832l27.708 5.972V22.17l-27.708-5.973v55.635z"/>
    <path fill="#7A1DFF" d="M67.797 76.032H51.636a2.315 2.315 0 01-2.31-2.322 2.315 2.315 0 012.31-2.322h13.853V55.13a2.315 2.315 0 012.31-2.323 2.315 2.315 0 012.308 2.323v18.58a2.315 2.315 0 01-2.308 2.322zM67.798 34.227a2.316 2.316 0 01-2.31-2.323V15.646h-46.18A2.316 2.316 0 0117 13.323a2.315 2.315 0 012.309-2.322h48.489a2.315 2.315 0 012.308 2.322v18.58a2.316 2.316 0 01-2.308 2.324z"/>
    <defs>
        <linearGradient id="prefix__paint0_linear" x1="55.818" x2="42.049" y1="111.159" y2="-14.226" gradientUnits="userSpaceOnUse">
            <stop offset=".002" stop-color="#DAC0FF" stop-opacity=".74"/>
            <stop offset=".992" stop-color="#FEFEFE"/>
        </linearGradient>
        <linearGradient id="prefix__paint1_linear" x1="52.536" x2="35.305" y1="88.737" y2="7.054" gradientUnits="userSpaceOnUse">
            <stop offset=".002" stop-color="#DAC0FF" stop-opacity=".74"/>
            <stop offset=".992" stop-color="#FEFEFE"/>
        </linearGradient>
    </defs>
</svg>
