<svg xmlns="http://www.w3.org/2000/svg" width="100" height="90" fill="none" viewBox="0 0 100 90">
    <path fill="url(#a)" d="M90.87 26.673c-2.902-3.381-4.813-7.491-5.706-11.857-.758-3.702-2.362-6.914-4.875-9.427-11.48-11.48-37.552-4.018-58.235 16.665S-6.09 68.81 5.39 80.29c5.456 5.456 14.21 6.631 24.115 4.143 5.753-1.446 11.823-.838 17.244 1.568a37.741 37.741 0 0 0 14.79 3.236c20.64.3 37.842-16.124 38.445-36.757a37.758 37.758 0 0 0-9.112-25.806z"/>
    <path fill="#FFE0B2" d="M82.431 71.632a4.1 4.1 0 0 1-2.9 7c-1.05 0-2.098-.4-2.9-1.2l-2.734-2.735 5.8-5.8 2.734 2.734z"/>
    <path fill="#C50000" d="M64.413 53.612l15.284 15.285-5.8 5.8-15.285-15.284.966-.967 3.868-3.867.967-.967z"/>
    <path fill="#FFF5CD" d="M63.446 54.578l-3.867 3.868-5.581-5.582a23.4 23.4 0 0 0 3.866-3.866l5.582 5.58z"/>
    <path fill="#FFE0B2" d="M62.852 34.61c0 5.431-1.865 10.43-4.988 14.388a23.4 23.4 0 0 1-3.866 3.866 23.152 23.152 0 0 1-14.389 4.988c-12.836 0-23.242-10.406-23.242-23.243 0-12.836 10.406-23.242 23.242-23.242 12.837 0 23.243 10.406 23.243 23.242z"/>
    <path fill="#F5F5F5" d="M57.383 34.61c0 4.153-1.426 7.976-3.814 11.002a17.897 17.897 0 0 1-2.957 2.957 17.706 17.706 0 0 1-11.003 3.814c-9.816 0-17.773-7.957-17.773-17.774 0-9.816 7.957-17.773 17.773-17.773 9.817 0 17.774 7.957 17.774 17.773z"/>
    <path fill="#7A1DFF" d="M28.009 23.009a1.368 1.368 0 1 0-1.936-1.933 1.368 1.368 0 0 0 1.936 1.933z"/>
    <path fill="#7A1DFF" d="M83.398 70.665L65.38 52.645a1.367 1.367 0 0 0-1.934 0L59.67 48.87c2.98-4.177 4.55-9.08 4.55-14.26C64.219 21.04 53.179 10 39.609 10S15 21.04 15 34.61s11.04 24.609 24.61 24.609c5.178 0 10.082-1.57 14.258-4.55l3.777 3.777a1.367 1.367 0 0 0 0 1.934l15.286 15.284 2.734 2.734A5.432 5.432 0 0 0 79.531 80c1.46 0 2.834-.569 3.866-1.602A5.43 5.43 0 0 0 85 74.531a5.43 5.43 0 0 0-1.602-3.866zm-23.82-14.152l-3.561-3.563a24.795 24.795 0 0 0 1.933-1.933l3.563 3.562-1.934 1.934zM17.735 34.609c0-12.062 9.813-21.875 21.875-21.875 12.063 0 21.875 9.813 21.875 21.875 0 4.967-1.623 9.65-4.693 13.542a22.061 22.061 0 0 1-3.64 3.64c-3.892 3.07-8.575 4.694-13.542 4.694-12.062 0-21.875-9.814-21.875-21.876zm46.678 20.938l.001-.001 13.35 13.351-3.866 3.866-13.351-13.35 3.866-3.866zm17.052 20.917a2.716 2.716 0 0 1-1.933.802c-.73 0-1.416-.285-1.933-.802l-1.767-1.767 3.866-3.866 1.768 1.768c.516.516.8 1.202.8 1.932s-.284 1.417-.8 1.933z"/>
    <path fill="#C50000" d="M33.174 41.045c.267.267.617.4.967.4s.7-.133.967-.4l4.502-4.502 4.502 4.502a1.363 1.363 0 0 0 1.933 0c.534-.534.534-1.4 0-1.934l-4.502-4.502 4.502-4.502a1.367 1.367 0 0 0-1.933-1.933l-4.502 4.502-4.502-4.502a1.367 1.367 0 0 0-1.934 1.933l4.502 4.502-4.502 4.502a1.367 1.367 0 0 0 0 1.934z"/>
    <path fill="#7A1DFF" d="M39.61 15.469c-3.05 0-6.086.738-8.78 2.134a1.367 1.367 0 0 0 1.257 2.428 16.19 16.19 0 0 1 7.522-1.828c9.047 0 16.407 7.36 16.407 16.406 0 9.047-7.36 16.407-16.407 16.407-9.046 0-16.406-7.36-16.406-16.407 0-2.65.615-5.18 1.828-7.52a1.367 1.367 0 1 0-2.428-1.258 19.157 19.157 0 0 0-2.134 8.778c0 10.555 8.586 19.141 19.14 19.141 10.555 0 19.141-8.586 19.141-19.14 0-10.555-8.586-19.141-19.14-19.141z"/>
    <defs>
        <linearGradient id="a" x1="55.818" x2="42.049" y1="111.159" y2="-14.226" gradientUnits="userSpaceOnUse">
            <stop offset=".002" stop-color="#DAC0FF" stop-opacity=".74"/>
            <stop offset=".992" stop-color="#FEFEFE"/>
        </linearGradient>
    </defs>
</svg>
