
<svg xmlns="http://www.w3.org/2000/svg" xmlns:xlink="http://www.w3.org/1999/xlink" width="24" height="24" viewBox="0 0 24 24">
    <defs>
        <path id="prefix__a" d="M3 3V0h2v3h3v2H5v3H3V5H0V3h3zm3 6V6h3V3h7l1.83 2H21c1.1 0 2 .9 2 2v12c0 1.1-.9 2-2 2H5c-1.1 0-2-.9-2-2V9h3zm7 9c2.76 0 5-2.24 5-5s-2.24-5-5-5-5 2.24-5 5 2.24 5 5 5zm-3.2-5c0 1.77 1.43 3.2 3.2 3.2 1.77 0 3.2-1.43 3.2-3.2 0-1.77-1.43-3.2-3.2-3.2-1.77 0-3.2 1.43-3.2 3.2z"/>
        <path id="prefix__c" d="M0 0H50V50H0z"/>
    </defs>
    <g fill="none" fill-rule="evenodd" transform="translate(0 1)">
        <mask id="prefix__b" fill="#fff">
            <use xlink:href="#prefix__a"/>
        </mask>
        <g mask="url(#prefix__b)">
            <g transform="translate(-13 -14)">
                <use fill="#000" xlink:href="#prefix__c"/>
            </g>
        </g>
    </g>
</svg>
