<svg xmlns="http://www.w3.org/2000/svg" width="100" height="100" fill="none" viewBox="0 0 100 100">
    <g clip-path="url(#a)">
        <path fill="#F2E8FF" d="M1.474 21.87s.141 50.721 0 56.163c.141 5.207 4.404 9.386 9.645 9.386h48.395L91.63 55.302V21.869H1.474z"/>
        <path fill="#fff" d="M48.56 98.372h49.972V48.401L48.561 98.371zm39.362-10.405h-16.04l16.04-16.04v16.04z"/>
        <path fill="#DAC0FF" d="M93.64 53.293v45.08h4.892V48.4l-4.892 4.893z"/>
        <path fill="#9C9C9C" d="M87.356 7.07L82.794 2.51a3.007 3.007 0 0 0-4.253 0l-3.947 3.946 8.815 8.815 3.946-3.947a3.008 3.008 0 0 0 0-4.253z"/>
        <path fill="#838383" d="M87.356 7.07l-2.939-2.938a3.007 3.007 0 0 1 0 4.254l-3.946 3.946 2.938 2.938 3.947-3.946a3.008 3.008 0 0 0 0-4.254z"/>
        <path fill="#FB5252" d="M83.408 15.269l-8.815-8.815-4.769 4.77 8.815 8.814 4.769-4.77z"/>
        <path fill="#C50000" d="M83.41 15.268l-2.938-2.937-4.769 4.769 2.938 2.937 4.768-4.768z"/>
        <path fill="#FFC89F" d="M32.552 57.312l13.61-4.804-8.806-8.806-4.804 13.61z"/>
        <path fill="#F7B081" d="M43.234 49.58l-9.084 3.206-1.598 4.526 13.61-4.804-2.928-2.928z"/>
        <path fill="#fff" d="M46.176 52.503l32.463-32.462-8.815-8.815L37.361 43.69l8.815 8.814z"/>
        <path fill="#DAC0FF" d="M46.176 52.503l32.462-32.462-2.934-2.935L43.24 49.568l2.935 2.935z"/>
        <path fill="#7A1DFF" d="M11.544 68.222V5.882c-5.565 0-10.076 4.51-10.076 10.075v62.341c0-5.565 4.511-10.076 10.076-10.076z"/>
        <path fill="#C6C5CA" d="M27.073 57.312h5.48l4.809-13.624L59.18 21.87H53.7L31.883 43.69l-4.81 13.623z"/>
        <path fill="#DAC0FF" d="M86.738 21.87v38.324l4.893-4.892V21.869h-4.893z"/>
        <path fill="#3C5156" d="M32.552 57.312l6.352-2.242-4.11-4.11-2.242 6.352z"/>
        <path fill="#000" d="M88.483 70.57a1.468 1.468 0 0 0-1.6.319l-16.04 16.04a1.468 1.468 0 0 0 1.039 2.506h16.04c.81 0 1.468-.657 1.468-1.468v-16.04c0-.594-.358-1.129-.907-1.356zM86.454 86.5h-11.03l11.03-11.03V86.5z"/>
        <path fill="#000" d="M99.094 47.044a1.468 1.468 0 0 0-1.6.318L93.1 51.758V21.87c0-.81-.658-1.467-1.468-1.467H80.353l4.094-4.094.002-.002 3.944-3.945a4.447 4.447 0 0 0 1.31-3.164c0-1.196-.465-2.32-1.31-3.165l-4.561-4.561A4.446 4.446 0 0 0 80.667.16c-1.195 0-2.319.465-3.164 1.31l-3.947 3.946-4.769 4.769-10.215 10.215h-45.56V5.881c0-.81-.658-1.468-1.468-1.468C5.179 4.413 0 9.592 0 15.957V78.3c0 .108.013.213.035.315a11.055 11.055 0 0 0 3.324 7.116 11.054 11.054 0 0 0 7.76 3.157h44.85l-8.446 8.447a1.468 1.468 0 0 0 1.038 2.506h49.971c.811 0 1.468-.657 1.468-1.468V48.4c0-.594-.358-1.13-.906-1.357zm-24.5-38.513l6.74 6.74-2.694 2.692-6.739-6.739 2.693-2.693zm4.985-4.984c.6-.6 1.577-.6 2.177 0l4.562 4.561c.6.6.6 1.578 0 2.178l-2.909 2.909-6.739-6.74 2.909-2.908zM52.104 96.904l8.445-8.444.002-.003 3.754-3.754 2.625-2.624a1.468 1.468 0 1 0-2.076-2.076l-5.949 5.948H11.12a8.137 8.137 0 0 1-8.176-7.918 8.63 8.63 0 0 1 .124-1.222l.007-.044a8.492 8.492 0 0 1 .349-1.32l.054-.152c.036-.096.074-.19.113-.285l.033-.082c.05-.117.103-.233.158-.348l.007-.014a8.64 8.64 0 0 1 6.006-4.697l.022-.005c.121-.025.244-.046.367-.066l.062-.01c.112-.017.225-.03.337-.043l.095-.012c.109-.01.219-.018.329-.025l.104-.007c.144-.007.289-.011.434-.011.81 0 1.468-.657 1.468-1.468V57.58a1.468 1.468 0 1 0-2.936 0v9.267a11.465 11.465 0 0 0-7.14 3.767V15.957c0-4.246 3.09-7.784 7.14-8.483v44.235a1.468 1.468 0 0 0 2.936 0V23.337h42.625l-8.114 8.114a1.468 1.468 0 1 0 2.075 2.076l10.62-10.62h.001l9.607-9.607 6.738 6.74-.79.79s-.002 0-.002.002L46.176 50.426l-6.739-6.739 5.834-5.833a1.468 1.468 0 0 0-2.076-2.076l-6.871 6.871a1.476 1.476 0 0 0-.104.116l-.03.041c-.02.028-.041.055-.06.084l-.03.052a1.38 1.38 0 0 0-.11.226l-.012.03-2.86 8.101-1.95 5.524a1.484 1.484 0 0 0-.058.223h-4.88a1.468 1.468 0 1 0 0 2.935h40.646a1.468 1.468 0 1 0 0-2.935H37.714l8.95-3.16.023-.01c.034-.012.069-.027.102-.042l.04-.019c.036-.017.07-.036.104-.057l.033-.02c.035-.022.07-.047.104-.073l.025-.019c.04-.033.08-.068.119-.106l30.204-30.204h12.745v31.357L69.168 75.69a1.468 1.468 0 0 0 2.075 2.075L92.67 56.34l.001-.002 4.395-4.394v12.95h-2.708a1.468 1.468 0 1 0 0 2.935h2.708v4.423h-2.708a1.468 1.468 0 1 0 0 2.936h2.708v4.422h-2.708a1.468 1.468 0 1 0 0 2.936h2.708v4.423h-2.708a1.468 1.468 0 0 0 0 2.936h2.708v7H52.104zM39.287 53.378l-2.8-2.801 1.483-4.204 5.522 5.52-4.205 1.485z"/>
    </g>
    <defs>
        <clipPath id="a">
            <path fill="#fff" d="M0 0h100v100H0z"/>
        </clipPath>
    </defs>
</svg>
