<svg xmlns="http://www.w3.org/2000/svg" width="162" height="162" fill="none" viewBox="0 0 162 162">
    <g clip-path="url(#a)">
        <path fill="#F2E8FF" d="M151.2 43.2H10.463v104.625H151.2V43.2z"/>
        <path fill="#000" d="M141.075 72.225h-51.3v75.6h51.3v-75.6z"/>
        <path fill="#fff" d="M136.012 77.288H94.837v65.475h41.175V77.288z"/>
        <path fill="#DAC0FF" d="M0 32.4v15.188c0 9.112 7.088 16.2 16.2 16.2 9.113 0 16.2-7.088 16.2-16.2V32.4H0z"/>
        <path fill="#E8EAE9" d="M32.4 32.4v15.188c0 9.112 7.087 16.2 16.2 16.2 9.112 0 16.2-7.088 16.2-16.2V32.4H32.4z"/>
        <path fill="#DAC0FF" d="M64.8 32.4v15.188c0 9.112 7.088 16.2 16.2 16.2 9.112 0 16.2-7.088 16.2-16.2V32.4H64.8z"/>
        <path fill="#E8EAE9" d="M97.2 32.4v15.188c0 9.112 7.088 16.2 16.2 16.2 9.113 0 16.2-7.088 16.2-16.2V32.4H97.2z"/>
        <path fill="#DAC0FF" d="M129.6 32.4v15.188c0 9.112 7.088 16.2 16.2 16.2 9.112 0 16.2-7.088 16.2-16.2V32.4h-32.4zM39.487 0H11.812L0 32.4h32.4L39.487 0z"/>
        <path fill="#F3F3F3" d="M67.163 0H39.488L32.4 32.4h32.4L67.163 0z"/>
        <path fill="#DAC0FF" d="M94.837 0H67.163L64.8 32.4h32.4L94.837 0z"/>
        <path fill="#F3F3F3" d="M122.512 0H94.837L97.2 32.4h32.4L122.512 0z"/>
        <path fill="#DAC0FF" d="M150.188 0h-27.675l7.087 32.4H162L150.188 0z"/>
        <path fill="#DCDCDC" d="M162 147.825H0V162h162v-14.175z"/>
        <path fill="#7A1DFF" d="M101.25 114.413a4.389 4.389 0 1 0-.001-8.777 4.389 4.389 0 0 0 .001 8.777z"/>
        <path fill="#000" d="M77.625 72.225H20.588v51.3h57.037v-51.3z"/>
        <path fill="#fff" d="M72.563 77.288H25.65v41.175h46.913V77.288z"/>
        <path fill="#D0D0D0" d="M50.287 83.7c-.675-.675-2.362-.675-3.037 0l-16.537 16.538c-.675.675-.675 2.362 0 3.037.674.675 2.362.675 3.037 0l16.538-16.538c1.012-1.012 1.012-2.362 0-3.037zM54 93.488c-.675-.675-2.362-.675-3.037 0L40.5 103.95c-.675.675-.675 2.363 0 3.038.675.675 2.363.675 3.037 0L54 96.525c1.013-1.012 1.013-2.362 0-3.037z"/>
    </g>
    <defs>
        <clipPath id="a">
            <path fill="#fff" d="M0 0h162v162H0z"/>
        </clipPath>
    </defs>
</svg>
