
<svg xmlns="http://www.w3.org/2000/svg" width="24" height="24" fill="none" viewBox="0 0 24 24">
    <circle cx="12" cy="12" r="12" fill="#D0D0D0"/>
    <path fill="#fff" d="M17.833 6.167v11.666H6.167V6.167h11.666zM18.75 4.5H5.25a.747.747 0 0 0-.75.75v13.5c0 .333.333.75.75.75h13.5c.333 0 .75-.417.75-.75V5.25c0-.417-.417-.75-.75-.75zm-7.583 3.333h5V9.5h-5V7.833zm0 3.334h5v1.666h-5v-1.666zm0 3.333h5v1.667h-5V14.5zM7.833 7.833H9.5V9.5H7.833V7.833zm0 3.334H9.5v1.666H7.833v-1.666zm0 3.333H9.5v1.667H7.833V14.5z"/>
</svg>
