<svg xmlns="http://www.w3.org/2000/svg" width="24" height="24" fill="none" viewBox="0 0 24 24">
    <circle cx="12" cy="12" r="12" fill="#7A1DFF"/>
    <path fill="#fff" d="M17.833 4.5H14.35A2.509 2.509 0 0 0 12 2.833c-1.083 0-2 .7-2.35 1.667H6.167C5.25 4.5 4.5 5.25 4.5 6.167v11.666c0 .917.75 1.667 1.667 1.667h11.666c.917 0 1.667-.75 1.667-1.667V6.167c0-.917-.75-1.667-1.667-1.667zM12 4.5c.458 0 .833.375.833.833a.836.836 0 0 1-.833.834.836.836 0 0 1-.833-.834c0-.458.375-.833.833-.833zm1.667 11.667H7.833V14.5h5.834v1.667zm2.5-3.334H7.833v-1.666h8.334v1.666zm0-3.333H7.833V7.833h8.334V9.5z"/>
</svg>
