<svg xmlns="http://www.w3.org/2000/svg" width="80" height="80" fill="none" viewBox="0 0 80 80">
    <circle cx="40" cy="40" r="40" fill="#D0D0D0"/>
    <path fill="#fff" d="M59.444 15h-11.61C46.666 11.778 43.61 9.445 40 9.445c-3.611 0-6.667 2.333-7.833 5.555H20.556C17.5 15 15 17.5 15 20.556v38.889C15 62.5 17.5 65 20.556 65h38.888C62.5 65 65 62.5 65 59.445v-38.89C65 17.5 62.5 15 59.444 15zM40 15a2.786 2.786 0 0 1 2.778 2.778A2.786 2.786 0 0 1 40 20.556a2.786 2.786 0 0 1-2.778-2.778A2.786 2.786 0 0 1 40 15zm5.556 38.889H26.11v-5.556h19.445v5.556zm8.333-11.111H26.11v-5.556H53.89v5.556zm0-11.111H26.11V26.11H53.89v5.556z"/>
</svg>
