<svg xmlns="http://www.w3.org/2000/svg" width="14" height="24" fill="none" viewBox="0 0 14 24">
    <path fill="#838383" d="M0 11.592c0 2.1.484 4.203 1.4 6.093v5.508a.7.7 0 0 0 .7.7h8.4a.7.7 0 0 0 .7-.7v-3.99c.117-.12.313-.318.639-.646A7.396 7.396 0 0 0 14 13.313a3.504 3.504 0 0 0-1.4-2.808V2.1c0-1.158-.942-2.1-2.1-2.1-1.158 0-2.1.942-2.1 2.1v2.22a2.104 2.104 0 0 0-2.732 1.448A2.103 2.103 0 0 0 2.874 7.17 2.102 2.102 0 0 0 0 9.123v2.47zm10.845 5.978c-.237.239-.448.452-.6.608-.333.338-.445.452-.445.744v3.571h-7v-4.97a.727.727 0 0 0-.074-.314 12.633 12.633 0 0 1-1.292-4.695 2.089 2.089 0 0 0 2.066-.428 2.09 2.09 0 0 0 2.577.175 3.523 3.523 0 0 0 1.437 1.357A4.895 4.895 0 0 0 5.6 17.5a.7.7 0 1 0 1.4 0c0-1.93 1.57-3.5 3.5-3.5a.7.7 0 1 0 0-1.4H9.1a2.104 2.104 0 0 1-1.98-1.4h3.38c1.159 0 2.1.95 2.1 2.113a6.005 6.005 0 0 1-1.755 4.257zM9.8 2.1a.7.7 0 0 1 1.4 0v7.771a3.534 3.534 0 0 0-.705-.071H9.8V2.1zM7 6.3a.7.7 0 0 1 1.4 0v3.5H7V6.3zM4.2 7.722a.7.7 0 0 1 1.4 0v2.8a.7.7 0 0 1-1.4 0v-2.8zm-2.1.7a.7.7 0 0 1 .7.7v1.4a.7.7 0 0 1-1.4 0v-1.4a.7.7 0 0 1 .7-.7z"/>
</svg>
