<svg xmlns="http://www.w3.org/2000/svg" width="24" height="24" fill="none" viewBox="0 0 24 24">
    <circle cx="12" cy="12" r="12" fill="#D0D0D0"/>
    <path fill="#fff" d="M20.842 11.65l-7.5-7.5c-.3-.3-.717-.483-1.175-.483H6.333c-.916 0-1.666.75-1.666 1.666v5.834c0 .458.183.875.491 1.183l7.5 7.5c.3.3.717.483 1.175.483a1.63 1.63 0 0 0 1.175-.491l5.834-5.834c.308-.3.491-.716.491-1.175 0-.458-.191-.883-.491-1.183zM7.583 7.833c-.691 0-1.25-.558-1.25-1.25 0-.691.559-1.25 1.25-1.25.692 0 1.25.559 1.25 1.25 0 .692-.558 1.25-1.25 1.25z"/>
</svg>
